<svg xmlns="http://www.w3.org/2000/svg" viewBox="0 0 512 512" role="img" aria-labelledby="title desc">
  <title id="title">py-DoubletFinder sticker</title>
  <desc id="desc">OmicVerse repository hex sticker for py-DoubletFinder.</desc>
  <defs>
    <linearGradient id="bg" x1="112" y1="90" x2="398" y2="430" gradientUnits="userSpaceOnUse">
      <stop offset="0" stop-color="#050706"/>
      <stop offset=".58" stop-color="#020403"/>
      <stop offset="1" stop-color="#000000"/>
    </linearGradient>
  </defs>
  <polygon points="256,34 450,146 450,368 256,480 62,368 62,146" fill="#000000" opacity=".34"/>
  <polygon points="256,22 458,139 458,373 256,490 54,373 54,139" fill="url(#bg)" stroke="#0B0F0A" stroke-width="19" stroke-linejoin="round"/>
  <polygon points="256,22 458,139 458,373 256,490 54,373 54,139" fill="none" stroke="#E8FFE0" stroke-width="12" stroke-linejoin="round"/>
  <g opacity=".22" stroke="#3FD36B" stroke-width="2.2">
    <path d="M112 166h288M100 222h312M100 278h312M112 334h288"/>
    <path d="M152 126v236M204 104v274M256 96v286M308 104v274M360 126v236"/>
  </g>
  
  <g id="motif">
    <circle cx="197" cy="218" r="42" fill="#30D158" opacity=".82" stroke="#FFFFFF" stroke-width="6"/>
    <circle cx="258" cy="218" r="42" fill="#00C7BE" opacity=".82" stroke="#FFFFFF" stroke-width="6"/>
    <circle cx="319" cy="218" r="42" fill="#FFD60A" opacity=".82" stroke="#FFFFFF" stroke-width="6"/>
    <path d="M289 272l56 56" stroke="#FFFFFF" stroke-width="10" stroke-linecap="round"/>
    <circle cx="270" cy="253" r="43" fill="none" stroke="#FF6961" stroke-width="9"/>
  </g>
  <path id="label" d="M306.09,385.60 L309.61,391.69 L305.90,393.83 L296.65,377.81 L300.36,375.67 L301.34,377.37 Q301.53,375.91 302.18,374.89 Q302.83,373.87 304.05,373.17 Q306.19,371.93 308.55,372.84 Q310.92,373.75 312.47,376.43 Q314.02,379.12 313.62,381.62 Q313.23,384.12 311.09,385.36 Q309.87,386.06 308.66,386.12 Q307.45,386.17 306.09,385.60 Z M304.22,376.66 Q303.03,377.35 302.90,378.59 Q302.77,379.84 303.72,381.48 Q304.67,383.13 305.81,383.64 Q306.96,384.15 308.15,383.46 Q309.34,382.77 309.46,381.54 Q309.59,380.30 308.63,378.65 Q307.68,376.99 306.54,376.48 Q305.41,375.97 304.22,376.66 Z M310.32,369.92 L314.03,367.78 L321.70,373.85 L319.81,364.44 L323.52,362.30 L325.97,377.83 Q326.36,380.19 325.82,381.53 Q325.29,382.86 323.68,383.79 L321.54,385.03 L320.13,382.60 L321.29,381.93 Q322.23,381.38 322.49,380.83 Q322.75,380.29 322.54,379.37 L322.46,378.98 L310.32,369.92 Z M327.36,365.40 L333.86,361.65 L335.60,364.66 L329.10,368.42 L327.36,365.40 Z M338.16,352.71 L343.61,362.16 L345.04,361.33 Q347.49,359.92 348.08,357.96 Q348.67,356.00 347.33,353.69 Q346.01,351.39 344.03,350.93 Q342.05,350.47 339.59,351.89 L338.16,352.71 Z M332.43,352.00 L336.63,349.57 Q340.16,347.54 342.18,347.04 Q344.19,346.55 346.12,347.04 Q347.81,347.46 349.13,348.53 Q350.45,349.59 351.45,351.31 Q352.46,353.07 352.72,354.75 Q352.99,356.43 352.50,358.10 Q351.95,360.02 350.50,361.53 Q349.05,363.04 345.57,365.05 L341.36,367.48 L332.43,352.00 Z M359.01,344.98 Q357.78,345.69 357.64,346.95 Q357.50,348.21 358.47,349.87 Q359.43,351.54 360.59,352.06 Q361.75,352.57 362.98,351.86 Q364.20,351.16 364.33,349.90 Q364.46,348.64 363.49,346.97 Q362.53,345.30 361.37,344.79 Q360.22,344.27 359.01,344.98 Z M357.48,342.32 Q360.47,340.59 363.09,341.24 Q365.71,341.88 367.36,344.74 Q369.01,347.60 368.26,350.19 Q367.51,352.78 364.51,354.51 Q361.51,356.25 358.88,355.61 Q356.25,354.97 354.60,352.11 Q352.95,349.25 353.71,346.65 Q354.47,344.06 357.48,342.32 Z M370.67,344.53 L366.57,337.44 L370.30,335.29 L370.98,336.45 Q371.52,337.39 372.33,338.82 Q373.15,340.25 373.42,340.73 Q374.23,342.13 374.66,342.70 Q375.09,343.28 375.42,343.46 Q375.86,343.69 376.34,343.68 Q376.82,343.66 377.30,343.38 Q378.46,342.71 378.61,341.44 Q378.76,340.16 377.84,338.58 L374.53,332.85 L378.25,330.70 L384.95,342.31 L381.24,344.46 L380.27,342.78 Q380.01,344.28 379.35,345.30 Q378.69,346.33 377.57,346.98 Q375.55,348.14 373.79,347.51 Q372.03,346.89 370.67,344.53 Z M393.31,334.29 Q394.50,333.61 394.62,332.37 Q394.75,331.14 393.79,329.48 Q392.83,327.82 391.70,327.32 Q390.57,326.81 389.38,327.49 Q388.19,328.18 388.06,329.43 Q387.92,330.67 388.88,332.32 Q389.83,333.97 390.97,334.47 Q392.12,334.98 393.31,334.29 Z M386.50,328.20 Q386.68,326.74 387.34,325.72 Q387.99,324.70 389.21,324.00 Q391.35,322.76 393.71,323.67 Q396.08,324.58 397.63,327.27 Q399.18,329.95 398.78,332.45 Q398.39,334.95 396.24,336.19 Q395.03,336.89 393.82,336.95 Q392.61,337.00 391.25,336.43 L392.22,338.11 L388.51,340.25 L379.20,324.12 L382.91,321.98 L386.50,328.20 Z M394.40,315.35 L398.10,313.21 L407.42,329.34 L403.71,331.48 L394.40,315.35 Z M419.20,314.76 L419.81,315.81 L411.14,320.82 Q412.02,322.05 413.21,322.24 Q414.40,322.42 415.85,321.58 Q417.02,320.91 418.04,319.85 Q419.07,318.79 419.96,317.34 L421.62,320.20 Q420.59,321.46 419.42,322.47 Q418.25,323.49 416.93,324.25 Q413.78,326.07 411.11,325.48 Q408.44,324.88 406.77,321.99 Q405.13,319.15 405.90,316.53 Q406.68,313.92 409.69,312.18 Q412.42,310.60 415.02,311.30 Q417.61,312.00 419.20,314.76 Z M414.68,315.72 Q414.06,314.67 413.07,314.38 Q412.08,314.08 411.09,314.66 Q410.01,315.28 409.69,316.27 Q409.36,317.27 409.86,318.51 L414.68,315.72 Z M420.83,301.72 L422.73,305.02 L426.56,302.81 L428.09,305.46 L424.26,307.67 L427.10,312.60 Q427.57,313.41 428.06,313.50 Q428.54,313.60 429.50,313.05 L431.41,311.95 L432.94,314.61 L429.75,316.44 Q427.56,317.71 426.11,317.33 Q424.66,316.94 423.39,314.74 L420.55,309.81 L418.71,310.88 L417.17,308.23 L419.02,307.16 L417.12,303.86 L420.83,301.72 Z" fill="#FFFFFF"/>
</svg>
